<svg version="1.1" xmlns="http://www.w3.org/2000/svg" width="2422" height="2539">
<path d="M0 0 C264 0 528 0 800 0 C800 66 800 132 800 200 C932 200 1064 200 1200 200 C1200 266 1200 332 1200 400 C1266 400 1332 400 1400 400 C1400 532 1400 664 1400 800 C1466 800 1532 800 1600 800 C1600 1130 1600 1460 1600 1800 C1534 1800 1468 1800 1400 1800 C1400 1932 1400 2064 1400 2200 C1202 2200 1004 2200 800 2200 C800 2263.03 800 2326.06 800 2391 C536 2391 272 2391 0 2391 C0 2327.97 0 2264.94 0 2200 C-132 2200 -264 2200 -400 2200 C-400 2134 -400 2068 -400 2000 C-466 2000 -532 2000 -600 2000 C-600 1868 -600 1736 -600 1600 C-666 1600 -732 1600 -800 1600 C-800 1336 -800 1072 -800 800 C-734 800 -668 800 -600 800 C-600 668 -600 536 -600 400 C-534 400 -468 400 -400 400 C-400 334 -400 268 -400 200 C-268 200 -136 200 0 200 C0 134 0 68 0 0 Z " fill="#FF0000" transform="translate(804,148)"/>
<path d="M0 0 C264 0 528 0 800 0 C800 66 800 132 800 200 C932 200 1064 200 1200 200 C1200 266 1200 332 1200 400 C1266 400 1332 400 1400 400 C1400 532 1400 664 1400 800 C1466 800 1532 800 1600 800 C1600 1130 1600 1460 1600 1800 C1534 1800 1468 1800 1400 1800 C1400 1932 1400 2064 1400 2200 C1202 2200 1004 2200 800 2200 C800 2134 800 2068 800 2000 C932 2000 1064 2000 1200 2000 C1200 1868 1200 1736 1200 1600 C1002 1600 804 1600 600 1600 C600 1468 600 1336 600 1200 C468 1200 336 1200 200 1200 C200 1134 200 1068 200 1000 C398 1000 596 1000 800 1000 C800 868 800 736 800 600 C668 600 536 600 400 600 C400 534 400 468 400 400 C136 400 -128 400 -400 400 C-400 334 -400 268 -400 200 C-268 200 -136 200 0 200 C0 134 0 68 0 0 Z " fill="#B50000" transform="translate(804,148)"/>
<path d="M0 0 C132 0 264 0 400 0 C400 132 400 264 400 400 C598 400 796 400 1000 400 C1000 532 1000 664 1000 800 C868 800 736 800 600 800 C600 929.03 600 1058.06 600 1191 C336 1191 72 1191 -200 1191 C-200 1127.97 -200 1064.94 -200 1000 C-332 1000 -464 1000 -600 1000 C-600 802 -600 604 -600 400 C-402 400 -204 400 0 400 C0 268 0 136 0 0 Z " fill="#B5B5B5" transform="translate(1004,1348)"/>
<path d="M0 0 C66 0 132 0 200 0 C200 330 200 660 200 1000 C134 1000 68 1000 0 1000 C0 1132 0 1264 0 1400 C-198 1400 -396 1400 -600 1400 C-600 1334 -600 1268 -600 1200 C-468 1200 -336 1200 -200 1200 C-200 1068 -200 936 -200 800 C-398 800 -596 800 -800 800 C-800 668 -800 536 -800 400 C-734 400 -668 400 -600 400 C-600 466 -600 532 -600 600 C-468 600 -336 600 -200 600 C-200 534 -200 468 -200 400 C-134 400 -68 400 0 400 C0 268 0 136 0 0 Z " fill="#000000" transform="translate(2204,948)"/>
<path d="M0 0 C66 0 132 0 200 0 C200 132 200 264 200 400 C266 400 332 400 400 400 C400 466 400 532 400 600 C532 600 664 600 800 600 C800 534 800 468 800 400 C866 400 932 400 1000 400 C1000 532 1000 664 1000 800 C802 800 604 800 400 800 C400 932 400 1064 400 1200 C334 1200 268 1200 200 1200 C200 1068 200 936 200 800 C134 800 68 800 0 800 C0 536 0 272 0 0 Z " fill="#000000" transform="translate(4,948)"/>
<path d="M0 0 C198 0 396 0 600 0 C600 66 600 132 600 200 C732 200 864 200 1000 200 C1000 266 1000 332 1000 400 C670 400 340 400 0 400 C0 268 0 136 0 0 Z " fill="#FFFFFF" transform="translate(404,1748)"/>
<path d="M0 0 C132 0 264 0 400 0 C400 132 400 264 400 400 C202 400 4 400 -200 400 C-200 334 -200 268 -200 200 C-134 200 -68 200 0 200 C0 134 0 68 0 0 Z " fill="#FF0000" transform="translate(1204,748)"/>
<path d="M0 0 C66 0 132 0 200 0 C200 66 200 132 200 200 C332 200 464 200 600 200 C600 266 600 332 600 400 C402 400 204 400 0 400 C0 268 0 136 0 0 Z " fill="#000000" transform="translate(1404,1348)"/>
<path d="M0 0 C132 0 264 0 400 0 C400 132 400 264 400 400 C268 400 136 400 0 400 C0 268 0 136 0 0 Z " fill="#FFFFFF" transform="translate(1004,1348)"/>
<path d="M0 0 C66 0 132 0 200 0 C200 132 200 264 200 400 C2 400 -196 400 -400 400 C-400 334 -400 268 -400 200 C-268 200 -136 200 0 200 C0 134 0 68 0 0 Z " fill="#000000" transform="translate(804,1348)"/>
<path d="M0 0 C264 0 528 0 800 0 C800 66 800 132 800 200 C536 200 272 200 0 200 C0 134 0 68 0 0 Z " fill="#000000" transform="translate(804,148)"/>
<path d="M0 0 C264 0 528 0 800 0 C800 63.03 800 126.06 800 191 C536 191 272 191 0 191 C0 127.97 0 64.94 0 0 Z " fill="#000000" transform="translate(804,2348)"/>
<path d="M0 0 C132 0 264 0 400 0 C400 66 400 132 400 200 C334 200 268 200 200 200 C200 266 200 332 200 400 C134 400 68 400 0 400 C0 268 0 136 0 0 Z " fill="#FF6969" transform="translate(804,748)"/>
<path d="M0 0 C132 0 264 0 400 0 C400 66 400 132 400 200 C268 200 136 200 0 200 C0 134 0 68 0 0 Z " fill="#000000" transform="translate(404,2148)"/>
<path d="M0 0 C132 0 264 0 400 0 C400 66 400 132 400 200 C268 200 136 200 0 200 C0 134 0 68 0 0 Z " fill="#000000" transform="translate(1004,1748)"/>
<path d="M0 0 C66 0 132 0 200 0 C200 132 200 264 200 400 C134 400 68 400 0 400 C0 268 0 136 0 0 Z " fill="#000000" transform="translate(204,1748)"/>
<path d="M0 0 C132 0 264 0 400 0 C400 66 400 132 400 200 C268 200 136 200 0 200 C0 134 0 68 0 0 Z " fill="#000000" transform="translate(1004,1148)"/>
<path d="M0 0 C66 0 132 0 200 0 C200 132 200 264 200 400 C134 400 68 400 0 400 C0 268 0 136 0 0 Z " fill="#000000" transform="translate(2004,548)"/>
<path d="M0 0 C66 0 132 0 200 0 C200 132 200 264 200 400 C134 400 68 400 0 400 C0 268 0 136 0 0 Z " fill="#000000" transform="translate(204,548)"/>
<path d="M0 0 C132 0 264 0 400 0 C400 66 400 132 400 200 C268 200 136 200 0 200 C0 134 0 68 0 0 Z " fill="#000000" transform="translate(1604,348)"/>
<path d="M0 0 C132 0 264 0 400 0 C400 66 400 132 400 200 C268 200 136 200 0 200 C0 134 0 68 0 0 Z " fill="#000000" transform="translate(404,348)"/>
<path d="M0 0 C66 0 132 0 200 0 C200 66 200 132 200 200 C134 200 68 200 0 200 C0 134 0 68 0 0 Z " fill="#B5B5B5" transform="translate(404,1948)"/>
<path d="M0 0 C66 0 132 0 200 0 C200 66 200 132 200 200 C134 200 68 200 0 200 C0 134 0 68 0 0 Z " fill="#B5B5B5" transform="translate(2004,1548)"/>
<path d="M0 0 C66 0 132 0 200 0 C200 66 200 132 200 200 C134 200 68 200 0 200 C0 134 0 68 0 0 Z " fill="#FFFFFF" transform="translate(204,1548)"/>
<path d="M0 0 C66 0 132 0 200 0 C200 66 200 132 200 200 C134 200 68 200 0 200 C0 134 0 68 0 0 Z " fill="#FF6969" transform="translate(804,948)"/>
<path d="M0 0 C66 0 132 0 200 0 C200 66 200 132 200 200 C134 200 68 200 0 200 C0 134 0 68 0 0 Z " fill="#F5F5F5" transform="translate(804,748)"/>
<path d="M0 0 C66 0 132 0 200 0 C200 66 200 132 200 200 C134 200 68 200 0 200 C0 134 0 68 0 0 Z " fill="#FF6969" transform="translate(604,748)"/>
<path d="M0 0 C66 0 132 0 200 0 C200 66 200 132 200 200 C134 200 68 200 0 200 C0 134 0 68 0 0 Z " fill="#FF6969" transform="translate(804,548)"/>
<path d="M0 0 C66 0 132 0 200 0 C200 66 200 132 200 200 C134 200 68 200 0 200 C0 134 0 68 0 0 Z " fill="#FF0000" transform="translate(804,348)"/>
</svg>
