<svg version="1.1" id="Layer_1" xmlns="http://www.w3.org/2000/svg" xmlns:xlink="http://www.w3.org/1999/xlink" x="0px" y="0px"
	 width="100%" viewBox="0 0 256 128" enable-background="new 0 0 256 128" xml:space="preserve">
<path fill="#F7E476" opacity="1.000000" stroke="none" 
	d="
M257.000000,65.000000 
	C257.000000,86.309013 257.000000,107.618019 257.000000,128.963516 
	C171.788300,128.963516 86.576576,128.963516 1.000000,128.963516 
	C1.000000,107.980515 1.000000,86.958916 1.468657,65.468658 
	C86.958206,65.000000 171.979111,65.000000 257.000000,65.000000 
z"/>
<path fill="#F99252" opacity="1.000000" stroke="none" 
	d="
M1.000000,26.000000 
	C1.000000,17.678595 1.000000,9.357188 1.000004,1.042164 
	C86.333344,1.048546 171.666687,1.048546 257.000000,1.048546 
	C257.000000,9.085609 257.000000,17.074125 256.531342,25.531321 
	C171.041794,26.000000 86.020897,26.000000 1.000000,26.000000 
z"/>
<path fill="#F7E476" opacity="1.000000" stroke="none" 
	d="
M257.000000,53.000000 
	C257.000000,56.362103 257.000000,59.724201 256.531342,63.543152 
	C171.041794,64.000000 86.020897,64.000000 1.000000,64.000000 
	C1.000000,60.637897 1.000000,57.275799 1.468657,53.456848 
	C86.958206,53.000000 171.979111,53.000000 257.000000,53.000000 
z"/>
<path fill="#F99252" opacity="1.000000" stroke="none" 
	d="
M257.000000,28.000000 
	C257.000000,30.370558 257.000000,32.741116 256.531342,35.555836 
	C171.041794,36.000000 86.020897,36.000000 1.000000,36.000000 
	C1.000000,33.629440 1.000000,31.258884 1.468657,28.444164 
	C86.958206,28.000000 171.979111,28.000000 257.000000,28.000000 
z"/>
<path fill="#F7E476" opacity="1.000000" stroke="none" 
	d="
M257.000000,44.000000 
	C257.000000,46.041992 257.000000,48.083984 256.531342,50.562988 
	C171.041794,51.000000 86.020897,51.000000 1.000000,51.000000 
	C1.000000,48.958008 1.000000,46.916016 1.468657,44.437012 
	C86.958206,44.000000 171.979111,44.000000 257.000000,44.000000 
z"/>
<path fill="#F7E476" opacity="1.000000" stroke="none" 
	d="
M1.000000,36.399994 
	C86.020897,36.000000 171.041794,36.000000 256.531342,36.000000 
	C257.000000,37.066669 257.000000,38.133339 256.531342,39.600006 
	C171.041794,40.000000 86.020897,40.000000 1.000000,40.000000 
	C1.000000,38.933331 1.000000,37.866661 1.000000,36.399994 
z"/>
<path fill="#F99252" opacity="1.000000" stroke="none" 
	d="
M1.000000,40.399994 
	C86.020897,40.000000 171.041794,40.000000 256.531342,40.000000 
	C257.000000,41.066669 257.000000,42.133339 257.000000,43.600006 
	C171.979111,44.000000 86.958206,44.000000 1.468657,44.000000 
	C1.000000,42.933331 1.000000,41.866661 1.000000,40.399994 
z"/>
<path fill="#F7E476" opacity="1.000000" stroke="none" 
	d="
M257.000000,27.666668 
	C171.979111,28.000000 86.958206,28.000000 1.468657,28.000000 
	C1.000000,27.555555 1.000000,27.111111 1.000000,26.333332 
	C86.020897,26.000000 171.041794,26.000000 256.531342,26.000000 
	C257.000000,26.444445 257.000000,26.888889 257.000000,27.666668 
z"/>
<path fill="#F99252" opacity="1.000000" stroke="none" 
	d="
M1.000000,51.333332 
	C86.020897,51.000000 171.041794,51.000000 256.531342,51.000000 
	C257.000000,51.444447 257.000000,51.888889 257.000000,52.666668 
	C171.979111,53.000000 86.958206,53.000000 1.468657,53.000000 
	C1.000000,52.555553 1.000000,52.111111 1.000000,51.333332 
z"/>
<path fill="#F99252" opacity="1.000000" stroke="none" 
	d="
M1.000000,64.250000 
	C86.020897,64.000000 171.041794,64.000000 256.531342,64.000000 
	C257.000000,64.000000 257.000000,64.500000 257.000000,64.750000 
	C171.979111,65.000000 86.958206,65.000000 1.468657,65.000000 
	C1.000000,65.000000 1.000000,64.500000 1.000000,64.250000 
z"/>
</svg>